<svg xmlns="http://www.w3.org/2000/svg" viewBox="0 0 143.67 130.83"><title>logo_white</title><path d="M19.27,122.75v2.75H7.83v-15h3.73v12.26Z" style="fill:#fff"/><path d="M28.57,125.5V124a4.21,4.21,0,0,1-3.28,1.65,3.65,3.65,0,0,1-2.68-1,3.79,3.79,0,0,1-1-2.83v-6.49h3.19v6.27c0,1.29.53,1.93,1.6,1.93a2.5,2.5,0,0,0,2.18-1.74v-6.46h3.21V125.5Zm-4.48-15.16a1.64,1.64,0,0,1,1.25.5,1.76,1.76,0,0,1-1.25,3,1.68,1.68,0,0,1-1.24-.51,1.74,1.74,0,0,1-.51-1.26,1.74,1.74,0,0,1,1.75-1.75Zm5.13,0a1.71,1.71,0,0,1,1.25.51,1.68,1.68,0,0,1,.51,1.24,1.74,1.74,0,0,1-.51,1.26,1.77,1.77,0,0,1-2.49,0,1.71,1.71,0,0,1-.52-1.26,1.76,1.76,0,0,1,1.76-1.75Z" style="fill:#fff"/><path d="M38.12,110.49v5.42a5,5,0,0,1,2.61-.77,4.71,4.71,0,0,1,3.58,1.46,5.31,5.31,0,0,1,1.38,3.79,5.51,5.51,0,0,1-1.33,3.81,4.35,4.35,0,0,1-3.4,1.49,4.73,4.73,0,0,1-2.84-1v.78H34.93v-15Zm0,7.5v4.7a2.93,2.93,0,0,0,1.89.86,2.12,2.12,0,0,0,1.79-.85,3.78,3.78,0,0,0,.65-2.36,3.35,3.35,0,0,0-.68-2.26,2.22,2.22,0,0,0-1.8-.8A3.17,3.17,0,0,0,38.12,118Z" style="fill:#fff"/><path d="M58.27,122.35v2a7.53,7.53,0,0,1-4.52,1.33,6.16,6.16,0,0,1-4.28-1.44,4.83,4.83,0,0,1-1.6-3.8,5.17,5.17,0,0,1,1.5-3.82,5.25,5.25,0,0,1,3.84-1.49,5.07,5.07,0,0,1,3.84,1.57,5.53,5.53,0,0,1,1.4,4.22H51.17a2.87,2.87,0,0,0,1,2.12,3.5,3.5,0,0,0,2.36.75A6.47,6.47,0,0,0,58.27,122.35Zm-7-3.1h4.41c-.18-1.47-.91-2.21-2.21-2.21S51.39,117.78,51.23,119.25Z" style="fill:#fff"/><path d="M70,122.72V125a10.21,10.21,0,0,1-3.43.68,6.13,6.13,0,0,1-4.27-1.44,4.83,4.83,0,0,1-1.6-3.8,5,5,0,0,1,1.61-3.81,5.82,5.82,0,0,1,4.12-1.5,9.78,9.78,0,0,1,3.42.67v2.37a5.7,5.7,0,0,0-2.6-.68,3.24,3.24,0,0,0-2.29.8,2.77,2.77,0,0,0-.86,2.13,2.9,2.9,0,0,0,.84,2.17,3,3,0,0,0,2.2.82A8.75,8.75,0,0,0,70,122.72Z" style="fill:#fff"/><path d="M75.91,110.49v9.88h0l3.93-5h3.75l-4,5,4.14,5.13H79.9l-3.94-5h0v5H72.72v-15Z" style="fill:#fff"/><path d="M102.37,122.43v3.07H92.45v-.42q1.36-1.67,3.12-4.22a25.79,25.79,0,0,0,2.22-3.63,5.19,5.19,0,0,0,.46-2.08,2.13,2.13,0,0,0-.58-1.51,1.84,1.84,0,0,0-1.42-.64,5.53,5.53,0,0,0-3.6,1.87v-3.15a7.75,7.75,0,0,1,4.2-1.43,5,5,0,0,1,3.48,1.14,4,4,0,0,1,1.27,3.13c0,1.81-1.35,4.44-4.07,7.87Z" style="fill:#fff"/><path d="M109.75,110.29a4.21,4.21,0,0,1,3.72,2.06,10,10,0,0,1,1.34,5.57,10.65,10.65,0,0,1-1.3,5.72,4.15,4.15,0,0,1-3.71,2,4.31,4.31,0,0,1-3.81-2,12.4,12.4,0,0,1,0-11.33A4.31,4.31,0,0,1,109.75,110.29Zm0,12.58a1.39,1.39,0,0,0,1.31-1.09,13.56,13.56,0,0,0,.41-4.09,10.82,10.82,0,0,0-.4-3.54,1.4,1.4,0,0,0-1.34-1,1.42,1.42,0,0,0-1.34,1,12.48,12.48,0,0,0-.42,4,11.1,11.1,0,0,0,.42,3.62A1.44,1.44,0,0,0,109.75,122.87Z" style="fill:#fff"/><path d="M127.17,122.43v3.07h-9.91v-.42q1.36-1.67,3.12-4.22a25.79,25.79,0,0,0,2.22-3.63,5.37,5.37,0,0,0,.46-2.08,2.14,2.14,0,0,0-.59-1.51,1.83,1.83,0,0,0-1.41-.64,5.53,5.53,0,0,0-3.61,1.87v-3.15a7.8,7.8,0,0,1,4.2-1.43,5,5,0,0,1,3.49,1.14,4,4,0,0,1,1.27,3.13c0,1.81-1.36,4.44-4.07,7.87Z" style="fill:#fff"/><path d="M136.15,110.49v15h-3.32v-15Z" style="fill:#fff"/><path d="M25.06,82.8,35.59,70.66h7.09V103.4H34.52V83L25.68,93.23H24.45L15.61,83V103.4H7.45V70.66h7.08Z" style="fill:#fff"/><path d="M60.76,70.66V103.4H52.6V70.66Z" style="fill:#fff"/><path d="M70.66,70.66H85.09q8.37,0,13.24,4.58a15.57,15.57,0,0,1,4.86,11.85q0,7.62-4.94,12T84.18,103.4H70.66Zm8.15,6V97.4h5.32c3.46,0,6.1-.94,7.93-2.84a10.42,10.42,0,0,0,2.74-7.51A10.29,10.29,0,0,0,92,79.44q-2.77-2.77-8-2.78Z" style="fill:#fff"/><path d="M136.55,97.4v6h-25V70.66h8.16V97.4Z" style="fill:#fff"/><path d="M57.27,52.44a7.83,7.83,0,1,1-7.83-7.83A7.83,7.83,0,0,1,57.27,52.44Z" style="fill:#fff"/><line x1="49.44" y1="52.44" x2="90.93" y2="34.55" style="fill:none;stroke:#fff;stroke-miterlimit:10;stroke-width:2px"/><path d="M101,34.55a10.06,10.06,0,1,1-10.06-10A10.06,10.06,0,0,1,101,34.55Z" style="fill:#fff"/><path d="M30.05,38.32a5.72,5.72,0,1,1-5.72-5.71A5.72,5.72,0,0,1,30.05,38.32Z" style="fill:#fff"/><line x1="21.58" y1="36.6" x2="49.93" y2="52.55" style="fill:none;stroke:#fff;stroke-miterlimit:10;stroke-width:2px"/><path d="M125.05,47.32a5.72,5.72,0,1,1-5.72-5.71A5.72,5.72,0,0,1,125.05,47.32Z" style="fill:#fff"/><line x1="90.44" y1="34.44" x2="119.33" y2="47.32" style="fill:none;stroke:#fff;stroke-miterlimit:10;stroke-width:2px"/><line x1="90.44" y1="33.44" x2="110.05" y2="10.04" style="fill:none;stroke:#fff;stroke-miterlimit:10;stroke-width:2px"/><path d="M113.48,10a3.44,3.44,0,1,1-3.43-3.43A3.44,3.44,0,0,1,113.48,10Z" style="fill:#fff"/></svg>