<svg xmlns="http://www.w3.org/2000/svg" viewBox="0 0 254.58 95.62"><path d="M14.91,25V14.83H51.74v2.09C40.05,22,27.69,24.31,14.91,25Z" fill="#189c7d"/><path d="M161.64,35.73a7.93,7.93,0,0,1,5.5-2.6,5.76,5.76,0,0,1,6.44,5.47,37.61,37.61,0,0,1,.14,3.83c0,3.08,0,6.17,0,9.32h-4.81v-.87c0-3.43,0-6.86,0-10.29a7.05,7.05,0,0,0-.16-1.2A2.73,2.73,0,0,0,166.81,37a3.4,3.4,0,0,0-3.39.8,5.69,5.69,0,0,0-1.65,4.15c-.08,3-.06,5.93-.08,8.89v1H157V25.31h4.65Z" fill="#040404"/><path d="M186.2,52.26c-5.76,0-9.53-3.84-9.51-9.61a9.12,9.12,0,0,1,9.55-9.53c5.74,0,9.62,4,9.57,9.81C195.76,48.51,191.87,52.28,186.2,52.26Zm4.76-9.6a25.44,25.44,0,0,0-.55-2.74,4.21,4.21,0,0,0-4.2-3.07,4.25,4.25,0,0,0-4.13,3.07,8.48,8.48,0,0,0,.38,6.28,3.81,3.81,0,0,0,3.83,2.32,3.76,3.76,0,0,0,3.77-2.4A27.22,27.22,0,0,0,191,42.66Z" fill="#040404"/><path d="M51.76,34.17V51.8H28.58Z" fill="#189c7d"/><path d="M113.64,33.6h4.73c0,.26,0,.49,0,.73,0,3.12,0,6.24,0,9.36a13.91,13.91,0,0,0,.15,2.14,2.73,2.73,0,0,0,2.07,2.6,3.44,3.44,0,0,0,3.74-1.32,7.55,7.55,0,0,0,1.25-4.62V33.63h4.78V51.76H126V49.6l-.39-.32a2.85,2.85,0,0,1-.4.82,7.5,7.5,0,0,1-6.54,2.07,5.54,5.54,0,0,1-4.75-4.75,7.71,7.71,0,0,1-.22-1.58C113.64,41.79,113.64,37.73,113.64,33.6Z" fill="#040404"/><path d="M228.39,44.2H215.8a4.45,4.45,0,0,0,4,4.45A10.38,10.38,0,0,0,226,47.39l.9-.46v4c-3.79,1.65-7.64,2-11.5.16a7.25,7.25,0,0,1-3.77-4.67,12.55,12.55,0,0,1,.09-7.55c1.36-4.14,4.77-6.2,9.26-5.65,4.09.49,6.41,2.88,7.06,7.35C228.25,41.71,228.28,42.89,228.39,44.2Zm-4.67-3.37c-.26-3-1.77-4.4-4.36-4.17a3.92,3.92,0,0,0-3.52,4.17Z" fill="#040404"/><path d="M152,51.78H147.3V48.87c0-2.37,0-4.74,0-7.11a14.34,14.34,0,0,0-.13-2c-.17-1.34-.66-2.48-2.13-2.87a3.58,3.58,0,0,0-3.84,1.52A8.09,8.09,0,0,0,140.05,43c0,2.59,0,5.18,0,7.77v1h-4.74V33.62h4.5V36l.56-.59a7.56,7.56,0,0,1,8.44-1.65A5.75,5.75,0,0,1,152,39.09C152.11,43.29,152,47.5,152,51.78Z" fill="#040404"/><path d="M110,51.79h-4.2l-.24-2.48a1.33,1.33,0,0,0-.24.2,7,7,0,0,1-9.84,1.32,5.53,5.53,0,0,1,1-9.12,12.42,12.42,0,0,1,5.82-1.16h3A3,3,0,0,0,103,36.83,8.65,8.65,0,0,0,96.52,38l-.39.25-.52.35V34.45a14.61,14.61,0,0,1,10.1-.77c2.47.78,3.83,2.82,3.94,6,.13,3.58.17,7.17.25,10.75C109.91,50.83,109.94,51.26,110,51.79Zm-4.49-8.47c-1.67.11-3.13.12-4.56.33a4.7,4.7,0,0,0-2,.93A2.32,2.32,0,0,0,98.13,47a2.05,2.05,0,0,0,1.67,1.57A4.11,4.11,0,0,0,105,45.84,21.32,21.32,0,0,0,105.48,43.32Z" fill="#040404"/><path d="M69.21,31V37h8.31v3.92h-8.3V51.75h-5V27.13H77.94V31Z" fill="#040404"/><path d="M14.91,51.78V46.27A323.17,323.17,0,0,0,51.74,25.81v3.51A324.2,324.2,0,0,1,14.91,51.78Z" fill="#189c7d"/><path d="M209.4,33.54V37h-4.07V51.76h-4.78V37.11h-3.46V33.59h3.43V31c0-4.07,2.37-6.31,6.43-6.12.93,0,1.85.18,2.87.28l-.35,3.9a12.88,12.88,0,0,0-1.89-.45,1.77,1.77,0,0,0-2.13,1.62c-.17,1.06-.14,2.15-.21,3.34Z" fill="#040404"/><path d="M51.76,21.26V23A282.26,282.26,0,0,1,14.91,41.09c0-.36,0-.57,0-.78V33.89A162.32,162.32,0,0,0,51.76,21.26Z" fill="#189c7d"/><path d="M231.75,33.62h4.18v3.67c1.36-2.94,3.22-4.62,6.47-4v4.7c-.69-.07-1.38-.2-2.08-.22a2.78,2.78,0,0,0-3,1.93,19.7,19.7,0,0,0-.8,4.64c-.13,2.46,0,4.92,0,7.45h-4.73Z" fill="#040404"/><path d="M85.58,37.17c2.08-3.52,3.86-4.56,6.54-3.85V38c-.65-.08-1.26-.21-1.87-.23A3.07,3.07,0,0,0,86.81,40a16.47,16.47,0,0,0-.65,4c-.1,2.27,0,4.55,0,6.83v.94H81.42V33.62h4.16Z" fill="#040404"/><path d="M207.42,76.7V64.43h4l2.82,9,.18,0c.94-3,1.89-6,2.85-9h3.91V76.68h-2.32V67.22l-.18,0-3.13,9.52h-2.44L210,67.1l-.17,0V76.7Z" fill="#040404"/><path d="M14.89,31.21V27a113.6,113.6,0,0,0,36.84-9.17v1.94A144.2,144.2,0,0,1,14.89,31.21Z" fill="#189c7d"/><path d="M18.75,51.85a354.3,354.3,0,0,0,33-21.59v2.23c-3.2,2.38-6.43,4.95-9.83,7.25C36,43.69,30.1,47.48,24.17,51.29a4.05,4.05,0,0,1-1.91.53C21.1,51.91,19.92,51.85,18.75,51.85Z" fill="#189c7d"/><path d="M242.4,64.44v1.93h-4.68v3H242v2h-4.29v3.4h4.7v2h-7.23V64.44Z" fill="#040404"/><path d="M227,66.38h-3.52V64.44h9.49v1.92h-3.46V76.69H227Z" fill="#040404"/><path d="M204.08,76.7h-2.39V64.43h2.39Z" fill="#040404"/></svg>