<svg xmlns="http://www.w3.org/2000/svg" viewBox="0 0 143.67 130.83"><title>MIDL 2020 logo</title><path d="M14.17,115.77l4.14-4.55H21.1V123.5H17.89v-7.67l-3.48,3.85h-.48l-3.49-3.85v7.67H7.23V111.22H10Z" fill="#fff"/><path d="M28.49,115A5.34,5.34,0,0,1,32,116.17a3.85,3.85,0,0,1,1.43,3.18,3.81,3.81,0,0,1-1.45,3.18,5.47,5.47,0,0,1-3.45,1.12,5.21,5.21,0,0,1-3.55-1.2,4.21,4.21,0,0,1,0-6.25A5.35,5.35,0,0,1,28.49,115Zm0,7.09c1.31,0,2-1,2-2.83s-.65-2.7-2-2.7a1.76,1.76,0,0,0-1.48.71,3.42,3.42,0,0,0-.53,2C26.48,121.18,27.15,122.11,28.49,122.11Z" fill="#fff"/><path d="M38.3,115.2v1.18A3.68,3.68,0,0,1,41.14,115a3.23,3.23,0,0,1,2.26.83,3,3,0,0,1,.91,2.37v5.28H41.57v-5.07c0-1.1-.45-1.66-1.36-1.66-.64,0-1.28.46-1.91,1.37v5.36H35.56v-8.3Z" fill="#fff"/><path d="M53.18,115.2V117H50v3.42a1.29,1.29,0,0,0,.36,1,1.31,1.31,0,0,0,1,.36,4.24,4.24,0,0,0,1.84-.48v1.88a6.83,6.83,0,0,1-2.54.52,3.6,3.6,0,0,1-2.49-.79,3,3,0,0,1-.89-2.32V117H46v-.51l3.64-3.88H50v2.61Z" fill="#fff"/><path d="M57.74,115.2v2.37h0c.8-1.7,1.72-2.55,2.78-2.55a3.33,3.33,0,0,1,1.82.76l-.76,2.31a3.49,3.49,0,0,0-1.62-.62,1.87,1.87,0,0,0-1.6,1.13,5.63,5.63,0,0,0-.66,1.3v3.6H55v-8.3Z" fill="#fff"/><path d="M72.24,120.92v1.64a6.6,6.6,0,0,1-3.88,1.09,5.49,5.49,0,0,1-3.68-1.17,3.9,3.9,0,0,1-1.37-3.11,4.1,4.1,0,0,1,1.29-3.12A4.59,4.59,0,0,1,67.9,115a4.31,4.31,0,0,1,4.5,4.74H66.14A2.39,2.39,0,0,0,67,121.5a3.19,3.19,0,0,0,2,.61A5.66,5.66,0,0,0,72.24,120.92Zm-6-2.53H70a1.77,1.77,0,0,0-1.89-1.81A1.75,1.75,0,0,0,66.2,118.39Zm4.66-7.06L67.74,114h-1.4l1.4-2.63Z" fill="#fff"/><path d="M83.41,121.45v1.45a5.38,5.38,0,0,1-2.57.75q-1.29,0-1.53-.93a5.22,5.22,0,0,1-2.87.93,2.56,2.56,0,0,1-1.73-.61,1.84,1.84,0,0,1-.71-1.42,2.27,2.27,0,0,1,.74-1.75,14.69,14.69,0,0,1,4.44-1.71c.06-.93-.44-1.39-1.51-1.39a4.54,4.54,0,0,0-3.21,1.39V116a7.32,7.32,0,0,1,3.77-1q3.69,0,3.69,2.53v3.78c0,.39.15.58.45.58A2.19,2.19,0,0,0,83.41,121.45Zm-4.23,0v-2a8.17,8.17,0,0,0-1.89.82,1.12,1.12,0,0,0-.51.93.88.88,0,0,0,.26.63.86.86,0,0,0,.63.26A2.32,2.32,0,0,0,79.18,121.48Z" fill="#fff"/><path d="M87.68,111.22V123.5H84.94V111.22Z" fill="#fff"/><path d="M104.34,121v2.51H95.82v-.35c.79-.91,1.68-2.06,2.69-3.45a21.12,21.12,0,0,0,1.9-3,4.09,4.09,0,0,0,.4-1.71,1.75,1.75,0,0,0-.5-1.24,1.66,1.66,0,0,0-1.22-.52A4.87,4.87,0,0,0,96,114.8v-2.57a6.88,6.88,0,0,1,3.61-1.17,4.46,4.46,0,0,1,3,.93,3.18,3.18,0,0,1,1.1,2.56q0,2.22-3.5,6.44Z" fill="#fff"/><path d="M110.8,111.06a3.67,3.67,0,0,1,3.2,1.68,7.93,7.93,0,0,1,1.15,4.56A8.29,8.29,0,0,1,114,122a3.6,3.6,0,0,1-3.19,1.68,3.75,3.75,0,0,1-3.27-1.67,7.93,7.93,0,0,1-1.17-4.62,7.79,7.79,0,0,1,1.19-4.64A3.73,3.73,0,0,1,110.8,111.06Zm0,10.29a1.2,1.2,0,0,0,1.13-.89,10.73,10.73,0,0,0,.35-3.35,8.46,8.46,0,0,0-.35-2.9,1.18,1.18,0,0,0-1.15-.85,1.22,1.22,0,0,0-1.15.83,9.75,9.75,0,0,0-.36,3.29,8.74,8.74,0,0,0,.36,3A1.24,1.24,0,0,0,110.8,121.35Z" fill="#fff"/><path d="M125.88,121v2.51h-8.52v-.35c.78-.91,1.68-2.06,2.68-3.45a21.49,21.49,0,0,0,1.91-3,4.23,4.23,0,0,0,.39-1.71,1.71,1.71,0,0,0-.5-1.24,1.64,1.64,0,0,0-1.21-.52,4.85,4.85,0,0,0-3.1,1.53v-2.57a6.88,6.88,0,0,1,3.61-1.17,4.48,4.48,0,0,1,3,.93,3.17,3.17,0,0,1,1.09,2.56q0,2.22-3.49,6.44Z" fill="#fff"/><path d="M132.34,111.06a3.68,3.68,0,0,1,3.2,1.68,8,8,0,0,1,1.14,4.56,8.38,8.38,0,0,1-1.11,4.67,3.61,3.61,0,0,1-3.19,1.68A3.76,3.76,0,0,1,129.1,122a8,8,0,0,1-1.16-4.62,7.86,7.86,0,0,1,1.18-4.64A3.74,3.74,0,0,1,132.34,111.06Zm0,10.29a1.19,1.19,0,0,0,1.12-.89,10.43,10.43,0,0,0,.35-3.35,8.52,8.52,0,0,0-.34-2.9,1.19,1.19,0,0,0-1.15-.85,1.21,1.21,0,0,0-1.15.83,9.75,9.75,0,0,0-.36,3.29,8.74,8.74,0,0,0,.36,3A1.22,1.22,0,0,0,132.34,121.35Z" fill="#fff"/><path d="M23.86,82.8,34.39,70.66h7.09V103.4H33.32V83L24.48,93.23H23.25L14.41,83V103.4H6.25V70.66h7.08Z" fill="#fff"/><path d="M59.56,70.66V103.4H51.4V70.66Z" fill="#fff"/><path d="M69.46,70.66H83.89q8.37,0,13.24,4.58A15.57,15.57,0,0,1,102,87.09q0,7.62-4.94,12T83,103.4H69.46Zm8.15,6V97.4h5.32c3.46,0,6.1-.94,7.93-2.84a10.42,10.42,0,0,0,2.74-7.51,10.29,10.29,0,0,0-2.78-7.61q-2.77-2.77-8-2.78Z" fill="#fff"/><path d="M135.35,97.4v6h-25V70.66h8.15V97.4Z" fill="#fff"/><path d="M57.27,52.44a7.83,7.83,0,1,1-7.83-7.83A7.83,7.83,0,0,1,57.27,52.44Z" fill="#fff"/><line x1="49.44" y1="52.44" x2="90.93" y2="34.55" fill="none" stroke="#fff" stroke-miterlimit="10" stroke-width="2"/><path d="M101,34.55a10.06,10.06,0,1,1-10.06-10A10.06,10.06,0,0,1,101,34.55Z" fill="#fff"/><path d="M30.05,38.32a5.72,5.72,0,1,1-5.72-5.71A5.72,5.72,0,0,1,30.05,38.32Z" fill="#fff"/><line x1="21.58" y1="36.6" x2="49.93" y2="52.55" fill="none" stroke="#fff" stroke-miterlimit="10" stroke-width="2"/><path d="M125.05,47.32a5.72,5.72,0,1,1-5.72-5.71A5.72,5.72,0,0,1,125.05,47.32Z" fill="#fff"/><line x1="90.44" y1="34.44" x2="119.33" y2="47.32" fill="none" stroke="#fff" stroke-miterlimit="10" stroke-width="2"/><line x1="90.44" y1="33.44" x2="110.05" y2="10.04" fill="none" stroke="#fff" stroke-miterlimit="10" stroke-width="2"/><path d="M113.48,10a3.44,3.44,0,1,1-3.43-3.43A3.44,3.44,0,0,1,113.48,10Z" fill="#fff"/></svg>