<svg xmlns="http://www.w3.org/2000/svg" viewBox="0 0 143.67 113.83"><path d="M26.26,82.8,36.79,70.66h7.09V103.4H35.72V83L26.88,93.23H25.65L16.81,83V103.4H8.65V70.66h7.08Z" fill="#fff"/><path d="M62,70.66V103.4H53.8V70.66Z" fill="#fff"/><path d="M71.86,70.66H86.29q8.37,0,13.23,4.58a15.54,15.54,0,0,1,4.87,11.85q0,7.62-4.94,12T85.38,103.4H71.86Zm8.15,6V97.4h5.32c3.46,0,6.1-.94,7.93-2.84A10.42,10.42,0,0,0,96,87.05a10.29,10.29,0,0,0-2.78-7.61q-2.77-2.77-8-2.78Z" fill="#fff"/><path d="M137.75,97.4v6h-25V70.66h8.15V97.4Z" fill="#fff"/><path d="M57.27,52.44a7.83,7.83,0,1,1-7.83-7.83A7.83,7.83,0,0,1,57.27,52.44Z" fill="#fff"/><line x1="49.44" y1="52.44" x2="90.93" y2="34.55" fill="none" stroke="#fff" stroke-miterlimit="10" stroke-width="2"/><path d="M101,34.55a10.06,10.06,0,1,1-10.06-10A10.06,10.06,0,0,1,101,34.55Z" fill="#fff"/><path d="M30.05,38.32a5.72,5.72,0,1,1-5.72-5.71A5.72,5.72,0,0,1,30.05,38.32Z" fill="#fff"/><line x1="21.58" y1="36.6" x2="49.93" y2="52.55" fill="none" stroke="#fff" stroke-miterlimit="10" stroke-width="2"/><path d="M125.05,47.32a5.72,5.72,0,1,1-5.72-5.71A5.72,5.72,0,0,1,125.05,47.32Z" fill="#fff"/><line x1="90.44" y1="34.44" x2="119.33" y2="47.32" fill="none" stroke="#fff" stroke-miterlimit="10" stroke-width="2"/><line x1="90.44" y1="33.44" x2="110.05" y2="10.04" fill="none" stroke="#fff" stroke-miterlimit="10" stroke-width="2"/><path d="M113.48,10a3.44,3.44,0,1,1-3.43-3.43A3.44,3.44,0,0,1,113.48,10Z" fill="#fff"/></svg>