<?xml version="1.0" encoding="UTF-8" standalone="no"?><!DOCTYPE svg PUBLIC "-//W3C//DTD SVG 1.1//EN" "http://www.w3.org/Graphics/SVG/1.1/DTD/svg11.dtd"><svg width="100%" height="100%" viewBox="0 0 144 131" version="1.1" xmlns="http://www.w3.org/2000/svg" xmlns:xlink="http://www.w3.org/1999/xlink" xml:space="preserve" xmlns:serif="http://www.serif.com/" style="fill-rule:evenodd;clip-rule:evenodd;stroke-miterlimit:10;"><g id="Background"><rect x="0" y="0" width="143.666" height="130.666" style="fill:#4e7268;"/></g><g id="Logo"><path d="M23.122,119.342l0,2.564l-10.667,0l0,-13.993l3.485,0l0,11.429l7.182,0Z" style="fill:#fff;fill-rule:nonzero;"/><path d="M29.623,112.26c1.482,0 2.739,0.434 3.771,1.302c1.032,0.868 1.547,2.077 1.547,3.626c0,1.556 -0.524,2.761 -1.572,3.616c-1.049,0.855 -2.297,1.282 -3.746,1.282c-1.57,0 -2.853,-0.456 -3.852,-1.367c-0.998,-0.912 -1.497,-2.095 -1.497,-3.551c0,-1.482 0.509,-2.671 1.527,-3.566c1.019,-0.895 2.293,-1.342 3.822,-1.342Zm0,8.063c1.422,0 2.133,-1.072 2.133,-3.215c0,-2.05 -0.711,-3.075 -2.133,-3.075c-0.681,0 -1.214,0.27 -1.598,0.811c-0.384,0.541 -0.576,1.316 -0.576,2.324c0,2.103 0.725,3.155 2.174,3.155Z" style="fill:#fff;fill-rule:nonzero;"/><path d="M39.909,112.45l0,1.353c0.875,-1.029 1.9,-1.543 3.076,-1.543c0.981,0 1.801,0.314 2.459,0.942c0.657,0.627 0.986,1.525 0.986,2.694l0,6.01l-2.975,0l0,-5.76c0,-1.262 -0.491,-1.893 -1.472,-1.893c-0.701,0 -1.392,0.521 -2.074,1.563l0,6.09l-2.974,0l0,-9.456l2.974,0Z" style="fill:#fff;fill-rule:nonzero;"/><path d="M58.41,107.913l0,13.993l-2.975,0l0,-0.761c-0.761,0.627 -1.636,0.941 -2.624,0.941c-1.263,0 -2.316,-0.467 -3.161,-1.402c-0.844,-0.935 -1.267,-2.107 -1.267,-3.516c0,-1.442 0.429,-2.621 1.287,-3.536c0.858,-0.915 1.959,-1.372 3.301,-1.372c0.835,0 1.656,0.2 2.464,0.601l0,-4.948l2.975,0Zm-2.975,11.409l0,-4.518c-0.541,-0.367 -1.095,-0.551 -1.663,-0.551c-0.748,0 -1.33,0.261 -1.748,0.782c-0.417,0.52 -0.626,1.252 -0.626,2.193c0,0.868 0.207,1.564 0.621,2.089c0.414,0.524 0.965,0.786 1.653,0.786c0.608,0 1.195,-0.261 1.763,-0.781Z" style="fill:#fff;fill-rule:nonzero;"/><path d="M65.732,112.26c1.482,0 2.739,0.434 3.771,1.302c1.032,0.868 1.547,2.077 1.547,3.626c0,1.556 -0.524,2.761 -1.572,3.616c-1.049,0.855 -2.297,1.282 -3.746,1.282c-1.57,0 -2.853,-0.456 -3.852,-1.367c-0.998,-0.912 -1.497,-2.095 -1.497,-3.551c0,-1.482 0.509,-2.671 1.527,-3.566c1.019,-0.895 2.292,-1.342 3.822,-1.342Zm0,8.063c1.422,0 2.133,-1.072 2.133,-3.215c0,-2.05 -0.711,-3.075 -2.133,-3.075c-0.681,0 -1.214,0.27 -1.598,0.811c-0.384,0.541 -0.576,1.316 -0.576,2.324c0,2.103 0.725,3.155 2.174,3.155Z" style="fill:#fff;fill-rule:nonzero;"/><path d="M76.018,112.45l0,1.353c0.875,-1.029 1.9,-1.543 3.075,-1.543c0.982,0 1.802,0.314 2.459,0.942c0.658,0.627 0.987,1.525 0.987,2.694l0,6.01l-2.975,0l0,-5.76c0,-1.262 -0.491,-1.893 -1.472,-1.893c-0.701,0 -1.392,0.521 -2.074,1.563l0,6.09l-2.974,0l0,-9.456l2.974,0Z" style="fill:#fff;fill-rule:nonzero;"/><path d="M99.827,119.051l0,2.855l-9.245,0l0,-0.391c0.848,-1.035 1.818,-2.345 2.91,-3.931c1.092,-1.586 1.781,-2.713 2.068,-3.381c0.288,-0.668 0.431,-1.315 0.431,-1.943c0,-0.548 -0.182,-1.018 -0.546,-1.412c-0.364,-0.394 -0.803,-0.591 -1.317,-0.591c-1.022,0 -2.143,0.581 -3.365,1.743l0,-2.935c1.368,-0.888 2.674,-1.332 3.916,-1.332c1.376,0 2.459,0.354 3.25,1.061c0.792,0.708 1.187,1.68 1.187,2.915c0,1.69 -1.265,4.137 -3.796,7.342l4.507,0Z" style="fill:#fff;fill-rule:nonzero;"/><path d="M106.468,107.733c1.483,0 2.639,0.637 3.471,1.913c0.831,1.275 1.247,3.008 1.247,5.198c0,2.277 -0.404,4.054 -1.212,5.329c-0.808,1.275 -1.963,1.913 -3.466,1.913c-1.522,0 -2.706,-0.634 -3.551,-1.903c-0.844,-1.269 -1.267,-3.025 -1.267,-5.269c0,-2.27 0.429,-4.035 1.287,-5.293c0.859,-1.259 2.022,-1.888 3.491,-1.888Zm0,11.729c0.561,0 0.968,-0.339 1.222,-1.017c0.254,-0.678 0.381,-1.951 0.381,-3.821c0,-1.556 -0.125,-2.656 -0.376,-3.3c-0.25,-0.645 -0.666,-0.967 -1.247,-0.967c-0.567,0 -0.983,0.315 -1.247,0.946c-0.264,0.632 -0.396,1.882 -0.396,3.752c0,1.569 0.132,2.696 0.396,3.38c0.264,0.685 0.686,1.027 1.267,1.027Z" style="fill:#fff;fill-rule:nonzero;"/><rect x="116.174" y="107.913" width="3.095" height="13.993" style="fill:#fff;fill-rule:nonzero;"/><path d="M125.99,122.086l3.225,-5.248c-0.32,0.086 -0.637,0.13 -0.951,0.13c-1.042,0 -1.938,-0.429 -2.69,-1.287c-0.751,-0.858 -1.126,-1.895 -1.126,-3.11c0,-1.369 0.447,-2.518 1.342,-3.446c0.895,-0.928 2,-1.392 3.315,-1.392c1.322,0 2.422,0.464 3.301,1.392c0.878,0.928 1.317,2.09 1.317,3.486c0,1.656 -0.615,3.482 -1.843,5.479l-2.464,3.996l-3.426,0Zm3.055,-7.502c0.447,0 0.82,-0.197 1.117,-0.591c0.297,-0.394 0.446,-0.895 0.446,-1.503c0,-0.661 -0.141,-1.182 -0.421,-1.562c-0.281,-0.381 -0.661,-0.571 -1.142,-0.571c-0.461,0 -0.843,0.199 -1.147,0.596c-0.304,0.397 -0.456,0.903 -0.456,1.517c0,0.628 0.149,1.137 0.446,1.528c0.297,0.391 0.683,0.586 1.157,0.586Z" style="fill:#fff;fill-rule:nonzero;"/><g><path d="M28.798,81.733l9.903,-11.424l6.682,0l0,30.81l-7.675,0l0,-19.231l-8.314,9.659l-1.169,0l-8.315,-9.659l0,19.231l-7.675,0l0,-30.81l6.683,0l9.88,11.424Z" style="fill:#fff;fill-rule:nonzero;"/><rect x="54.763" y="70.309" width="7.675" height="30.81" style="fill:#fff;fill-rule:nonzero;"/><path d="M71.795,70.309l13.585,0c5.249,0 9.399,1.437 12.45,4.312c3.051,2.874 4.576,6.59 4.576,11.148c0,4.779 -1.547,8.532 -4.642,11.259c-3.095,2.727 -7.51,4.091 -13.244,4.091l-12.725,0l0,-30.81Zm7.675,5.646l0,19.518l5.006,0c3.25,0 5.734,-0.893 7.455,-2.679c1.72,-1.787 2.58,-4.143 2.58,-7.069c0,-3.029 -0.871,-5.414 -2.613,-7.157c-1.743,-1.742 -4.246,-2.613 -7.51,-2.613l-4.918,0Z" style="fill:#fff;fill-rule:nonzero;"/><path d="M133.74,95.473l0,5.646l-23.488,0l0,-30.81l7.675,0l0,25.164l15.813,0Z" style="fill:#fff;fill-rule:nonzero;"/></g><path d="M57.274,53.438c0,4.325 -3.506,7.831 -7.832,7.831c-4.324,-0.001 -7.831,-3.507 -7.831,-7.832c0,-4.325 3.507,-7.832 7.831,-7.832c4.326,0 7.832,3.508 7.832,7.832" style="fill:#fff;fill-rule:nonzero;"/><path d="M49.443,53.438l41.488,-17.887" style="fill:none;stroke:#fff;stroke-width:2px;"/><path d="M100.986,35.552c0,5.553 -4.502,10.054 -10.055,10.054c-5.552,0 -10.054,-4.501 -10.054,-10.054c0,-5.553 4.502,-10.054 10.054,-10.054c5.553,0 10.055,4.501 10.055,10.054" style="fill:#fff;fill-rule:nonzero;"/><path d="M30.046,39.323c0,3.157 -2.56,5.717 -5.717,5.717c-3.158,0 -5.717,-2.56 -5.717,-5.717c0,-3.158 2.559,-5.717 5.717,-5.717c3.157,0 5.717,2.559 5.717,5.717" style="fill:#fff;fill-rule:nonzero;"/><path d="M21.581,37.603l28.351,15.949" style="fill:none;stroke:#fff;stroke-width:2px;"/><path d="M125.046,48.323c0,3.157 -2.561,5.717 -5.717,5.717c-3.158,0 -5.718,-2.56 -5.718,-5.717c0,-3.158 2.56,-5.717 5.718,-5.717c3.156,0 5.717,2.559 5.717,5.717" style="fill:#fff;fill-rule:nonzero;"/><path d="M90.443,35.438l28.886,12.886" style="fill:none;stroke:#fff;stroke-width:2px;"/><path d="M90.443,34.438l19.604,-23.397" style="fill:none;stroke:#fff;stroke-width:2px;"/><path d="M113.483,11.041c0,1.898 -1.538,3.436 -3.435,3.436c-1.898,0 -3.436,-1.538 -3.436,-3.436c0,-1.897 1.538,-3.436 3.436,-3.436c1.897,0 3.435,1.539 3.435,3.436" style="fill:#fff;fill-rule:nonzero;"/></g></svg>