<svg xmlns="http://www.w3.org/2000/svg" viewBox="0 0 143.67 130.83"><defs><style>.a{fill:#fff;}.b{fill:none;stroke:#fff;stroke-miterlimit:10;stroke-width:2px;}</style></defs><title>logo_white</title><path class="a" d="M14.54,112.58l4.84,10.92H16.46l-.9-2.16H10.67l-.81,2.16H7l4.41-10.92Zm.23,6.85L13,115.19l-1.61,4.24Z"/><path class="a" d="M22.75,116.12v.95A3.69,3.69,0,0,1,25.32,116,2.71,2.71,0,0,1,28,117.53,3.86,3.86,0,0,1,30.88,116a2.87,2.87,0,0,1,2.08.78,2.66,2.66,0,0,1,.81,2v4.74H31.45v-4.33a1.87,1.87,0,0,0-.36-1.22,1.24,1.24,0,0,0-1-.43,2.27,2.27,0,0,0-1.83,1.25v4.73H25.94v-4.38a1.69,1.69,0,0,0-.39-1.19,1.36,1.36,0,0,0-1-.41,2.39,2.39,0,0,0-1.77,1v5H20.43v-7.38Z"/><path class="a" d="M40.78,116.51v1.65a4.76,4.76,0,0,0-2.46-.81c-.56,0-.83.19-.83.57a.38.38,0,0,0,.17.29,8,8,0,0,0,1.35.61,4,4,0,0,1,1.66,1.08,2.09,2.09,0,0,1,.48,1.33,2.15,2.15,0,0,1-.78,1.78,3.46,3.46,0,0,1-2.23.63,6.16,6.16,0,0,1-2.64-.54v-1.64a6.15,6.15,0,0,0,2.38.63c.75,0,1.13-.18,1.13-.55a.51.51,0,0,0-.21-.39,6.11,6.11,0,0,0-1.39-.66,3.77,3.77,0,0,1-1.63-1,2,2,0,0,1,.41-2.88A3.5,3.5,0,0,1,38.4,116,5.18,5.18,0,0,1,40.78,116.51Z"/><path class="a" d="M47.84,116.12v1.59H45.15v3a1.2,1.2,0,0,0,.3.86,1.09,1.09,0,0,0,.83.31,3.52,3.52,0,0,0,1.56-.42v1.67a5.57,5.57,0,0,1-2.15.47,3,3,0,0,1-2.11-.71,2.68,2.68,0,0,1-.75-2.06v-3.16H41.77v-.46l3.09-3.45h.29v2.32Z"/><path class="a" d="M56.23,121.21v1.46a5.48,5.48,0,0,1-3.29,1,4.47,4.47,0,0,1-3.11-1,3.51,3.51,0,0,1-1.16-2.76,3.75,3.75,0,0,1,1.09-2.78A3.81,3.81,0,0,1,52.55,116a3.71,3.71,0,0,1,2.79,1.15,4,4,0,0,1,1,3.06h-5.3a2.16,2.16,0,0,0,.71,1.55,2.59,2.59,0,0,0,1.72.54A4.7,4.7,0,0,0,56.23,121.21ZM51.11,119h3.2c-.12-1.08-.66-1.61-1.6-1.61S51.23,117.88,51.11,119Z"/><path class="a" d="M60.24,116.12v2.11h0c.68-1.51,1.46-2.27,2.36-2.27a2.79,2.79,0,0,1,1.54.68l-.65,2a2.88,2.88,0,0,0-1.37-.55,1.6,1.6,0,0,0-1.36,1,5.5,5.5,0,0,0-.55,1.16v3.2H57.92v-7.38Z"/><path class="a" d="M72.21,112.58V123.5H69.89v-.6a3.1,3.1,0,0,1-2,.74,3.19,3.19,0,0,1-2.47-1.1,3.93,3.93,0,0,1-1-2.74,3.86,3.86,0,0,1,1-2.76A3.33,3.33,0,0,1,68,116a4.31,4.31,0,0,1,1.92.47v-3.85Zm-2.32,8.89V118a2.24,2.24,0,0,0-1.29-.43,1.65,1.65,0,0,0-1.37.61,2.68,2.68,0,0,0-.49,1.71,2.51,2.51,0,0,0,.49,1.63,1.55,1.55,0,0,0,1.29.61A2,2,0,0,0,69.89,121.47Z"/><path class="a" d="M81.65,121.67V123a4.37,4.37,0,0,1-2.17.68c-.73,0-1.16-.28-1.3-.83a4.31,4.31,0,0,1-2.43.83,2.12,2.12,0,0,1-1.46-.55,1.65,1.65,0,0,1-.6-1.26,2.09,2.09,0,0,1,.62-1.56,12,12,0,0,1,3.76-1.52c.05-.82-.37-1.23-1.28-1.23a3.81,3.81,0,0,0-2.72,1.23v-1.89a6,6,0,0,1,3.2-.9q3.12,0,3.12,2.25v3.36c0,.35.13.52.38.52A1.8,1.8,0,0,0,81.65,121.67Zm-3.58,0v-1.78a6.48,6.48,0,0,0-1.6.73,1,1,0,0,0-.43.83.75.75,0,0,0,.22.55.7.7,0,0,0,.53.23A1.88,1.88,0,0,0,78.07,121.7Z"/><path class="a" d="M85,116.12v.95A3.68,3.68,0,0,1,87.54,116a2.72,2.72,0,0,1,2.66,1.57A3.84,3.84,0,0,1,93.11,116a2.87,2.87,0,0,1,2.08.78,2.65,2.65,0,0,1,.8,2v4.74H93.67v-4.33a1.87,1.87,0,0,0-.36-1.22,1.22,1.22,0,0,0-1-.43,2.26,2.26,0,0,0-1.83,1.25v4.73H88.17v-4.38a1.69,1.69,0,0,0-.39-1.19,1.36,1.36,0,0,0-1-.41,2.37,2.37,0,0,0-1.77,1v5H82.66v-7.38Z"/><path class="a" d="M109.5,121.27v2.23h-7.21v-.31c.66-.81,1.42-1.83,2.27-3.07a18.08,18.08,0,0,0,1.61-2.63,3.75,3.75,0,0,0,.34-1.52,1.54,1.54,0,0,0-.43-1.1,1.32,1.32,0,0,0-1-.46,4,4,0,0,0-2.63,1.36v-2.29a5.69,5.69,0,0,1,3.06-1,3.67,3.67,0,0,1,2.53.83,2.88,2.88,0,0,1,.93,2.27q0,2-3,5.73Z"/><path class="a" d="M114.68,112.44a3.07,3.07,0,0,1,2.71,1.49,7.37,7.37,0,0,1,1,4.06,7.73,7.73,0,0,1-.94,4.15,3,3,0,0,1-2.71,1.5,3.15,3.15,0,0,1-2.77-1.49,9,9,0,0,1,0-8.24A3.14,3.14,0,0,1,114.68,112.44Zm0,9.15a1,1,0,0,0,.95-.79,9.81,9.81,0,0,0,.3-3,8.06,8.06,0,0,0-.29-2.58,1,1,0,0,0-2,0,9,9,0,0,0-.31,2.92,8.2,8.2,0,0,0,.31,2.64A1.06,1.06,0,0,0,114.68,121.59Z"/><path class="a" d="M124.67,112.58V123.5h-2.42V112.58Z"/><path class="a" d="M130.32,117.74A2.64,2.64,0,0,1,129,115.4a2.72,2.72,0,0,1,.91-2.14,3.95,3.95,0,0,1,4.88,0,2.79,2.79,0,0,1,.91,2.11,2.55,2.55,0,0,1-1.33,2.32,2.78,2.78,0,0,1,1.64,2.64,3,3,0,0,1-1,2.36,3.85,3.85,0,0,1-2.67.9,3.78,3.78,0,0,1-2.62-.91,3,3,0,0,1-1-2.34A2.68,2.68,0,0,1,130.32,117.74Zm2,4.3a1,1,0,0,0,.87-.45,2,2,0,0,0,.34-1.22,2.13,2.13,0,0,0-.34-1.28,1.07,1.07,0,0,0-1.77,0,2,2,0,0,0-.34,1.22,2.2,2.2,0,0,0,.34,1.27A1.08,1.08,0,0,0,132.35,122Zm0-5a.8.8,0,0,0,.73-.42,2.13,2.13,0,0,0,.27-1.15c0-1-.35-1.46-1-1.46a.83.83,0,0,0-.73.4,1.81,1.81,0,0,0-.28,1.09,1.93,1.93,0,0,0,.29,1.12A.86.86,0,0,0,132.35,117.07Z"/><path class="a" d="M25.06,82.8,35.59,70.66h7.09V103.4H34.52V83L25.68,93.23H24.45L15.61,83V103.4H7.45V70.66h7.08Z"/><path class="a" d="M60.76,70.66V103.4H52.6V70.66Z"/><path class="a" d="M70.66,70.66H85.09q8.37,0,13.23,4.58a15.54,15.54,0,0,1,4.87,11.85q0,7.62-4.94,12T84.18,103.4H70.66Zm8.15,6V97.4h5.32c3.46,0,6.1-.94,7.93-2.84a10.42,10.42,0,0,0,2.74-7.51A10.29,10.29,0,0,0,92,79.44q-2.77-2.77-8-2.78Z"/><path class="a" d="M136.55,97.4v6h-25V70.66h8.15V97.4Z"/><path class="a" d="M57.27,52.44a7.83,7.83,0,1,1-7.83-7.83A7.83,7.83,0,0,1,57.27,52.44Z"/><line class="b" x1="49.44" y1="52.44" x2="90.93" y2="34.55"/><path class="a" d="M101,34.55a10.06,10.06,0,1,1-10.06-10A10.06,10.06,0,0,1,101,34.55Z"/><path class="a" d="M30.05,38.32a5.72,5.72,0,1,1-5.72-5.71A5.72,5.72,0,0,1,30.05,38.32Z"/><line class="b" x1="21.58" y1="36.6" x2="49.93" y2="52.55"/><path class="a" d="M125.05,47.32a5.72,5.72,0,1,1-5.72-5.71A5.72,5.72,0,0,1,125.05,47.32Z"/><line class="b" x1="90.44" y1="34.44" x2="119.33" y2="47.32"/><line class="b" x1="90.44" y1="33.44" x2="110.05" y2="10.04"/><path class="a" d="M113.48,10a3.44,3.44,0,1,1-3.43-3.43A3.44,3.44,0,0,1,113.48,10Z"/></svg>